<svg width="199" height="370" viewBox="0 0 199 370" fill="none" xmlns="http://www.w3.org/2000/svg">
<path d="M81.1555 331.635C81.2874 329.689 83.0826 328.256 85.0267 328.412C98.1877 329.467 143.135 327.994 151.5 260.293C157.836 209.017 158.534 190.256 158.517 184.314C158.513 182.809 159.196 181.351 160.416 180.47C161.586 179.624 163.101 179.44 164.435 179.989C169.516 182.079 182 187.232 183.483 188.003C184.417 188.488 185.433 188.913 186.748 189.951C188.064 190.99 200.044 198.228 178.637 270.316C158.357 338.613 97.6992 336.367 83.8126 334.912C82.1654 334.739 81.0436 333.287 81.1555 331.635Z" fill="white" fill-opacity="0.6"/>
<path d="M78.9199 125.151C83.659 122.296 89.5852 122.282 94.3379 125.114L122.355 141.808C131.436 147.219 137 157.009 137 167.58V346.514C137 354.799 130.284 361.514 122 361.514H51C42.7158 361.514 36.0001 354.798 36 346.514V167.955C36.0001 157.435 41.5096 147.684 50.5205 142.256L78.9199 125.151Z" fill="#D9D9D9"/>
<g filter="url(#filter0_d_132_120)">
<rect x="46" y="362" width="179" height="35" rx="17.5" transform="rotate(-90 46 362)" fill="white" fill-opacity="0.8" shape-rendering="crispEdges"/>
</g>
<g filter="url(#filter1_d_132_120)">
<rect x="91" y="362" width="179" height="35" rx="17.5" transform="rotate(-90 91 362)" fill="white" fill-opacity="0.8" shape-rendering="crispEdges"/>
</g>
<path d="M62.7338 34.9113C66.0275 36.8113 66.1848 41.0035 63.0299 42.803L38.1458 56.9966C34.9909 58.7961 30.629 57.0022 29.9346 53.6196L26.294 35.8853L23.2866 21.2359C22.464 17.2289 27.3001 14.4705 31.2017 16.7213L45.4659 24.9499L62.7338 34.9113Z" fill="white" fill-opacity="0.6"/>
<path d="M110.266 34.9113C106.972 36.8113 106.815 41.0035 109.97 42.803L134.854 56.9966C138.009 58.7961 142.371 57.0022 143.065 53.6196L146.706 35.8853L149.713 21.2359C150.536 17.2289 145.7 14.4705 141.798 16.7213L127.534 24.9499L110.266 34.9113Z" fill="white" fill-opacity="0.6"/>
<g filter="url(#filter2_d_132_120)">
<rect x="19" y="37" width="136" height="116" rx="19" fill="#D9D9D9"/>
</g>
<g filter="url(#filter3_d_132_120)">
<rect x="4" y="329" width="82.529" height="33" rx="16.5" fill="white" fill-opacity="0.8"/>
<rect x="86.5293" y="329" width="81.471" height="33" rx="16.5" fill="white" fill-opacity="0.8"/>
</g>
<rect x="48" y="94" width="77" height="38" rx="7" fill="white" fill-opacity="0.8"/>
<defs>
<filter id="filter0_d_132_120" x="42" y="183" width="43" height="187" filterUnits="userSpaceOnUse" color-interpolation-filters="sRGB">
<feFlood flood-opacity="0" result="BackgroundImageFix"/>
<feColorMatrix in="SourceAlpha" type="matrix" values="0 0 0 0 0 0 0 0 0 0 0 0 0 0 0 0 0 0 127 0" result="hardAlpha"/>
<feOffset dy="4"/>
<feGaussianBlur stdDeviation="2"/>
<feComposite in2="hardAlpha" operator="out"/>
<feColorMatrix type="matrix" values="0 0 0 0 0 0 0 0 0 0 0 0 0 0 0 0 0 0 0.25 0"/>
<feBlend mode="normal" in2="BackgroundImageFix" result="effect1_dropShadow_132_120"/>
<feBlend mode="normal" in="SourceGraphic" in2="effect1_dropShadow_132_120" result="shape"/>
</filter>
<filter id="filter1_d_132_120" x="87" y="183" width="43" height="187" filterUnits="userSpaceOnUse" color-interpolation-filters="sRGB">
<feFlood flood-opacity="0" result="BackgroundImageFix"/>
<feColorMatrix in="SourceAlpha" type="matrix" values="0 0 0 0 0 0 0 0 0 0 0 0 0 0 0 0 0 0 127 0" result="hardAlpha"/>
<feOffset dy="4"/>
<feGaussianBlur stdDeviation="2"/>
<feComposite in2="hardAlpha" operator="out"/>
<feColorMatrix type="matrix" values="0 0 0 0 0 0 0 0 0 0 0 0 0 0 0 0 0 0 0.25 0"/>
<feBlend mode="normal" in2="BackgroundImageFix" result="effect1_dropShadow_132_120"/>
<feBlend mode="normal" in="SourceGraphic" in2="effect1_dropShadow_132_120" result="shape"/>
</filter>
<filter id="filter2_d_132_120" x="15" y="37" width="144" height="124" filterUnits="userSpaceOnUse" color-interpolation-filters="sRGB">
<feFlood flood-opacity="0" result="BackgroundImageFix"/>
<feColorMatrix in="SourceAlpha" type="matrix" values="0 0 0 0 0 0 0 0 0 0 0 0 0 0 0 0 0 0 127 0" result="hardAlpha"/>
<feOffset dy="4"/>
<feGaussianBlur stdDeviation="2"/>
<feComposite in2="hardAlpha" operator="out"/>
<feColorMatrix type="matrix" values="0 0 0 0 0 0 0 0 0 0 0 0 0 0 0 0 0 0 0.25 0"/>
<feBlend mode="normal" in2="BackgroundImageFix" result="effect1_dropShadow_132_120"/>
<feBlend mode="normal" in="SourceGraphic" in2="effect1_dropShadow_132_120" result="shape"/>
</filter>
<filter id="filter3_d_132_120" x="0" y="329" width="172" height="41" filterUnits="userSpaceOnUse" color-interpolation-filters="sRGB">
<feFlood flood-opacity="0" result="BackgroundImageFix"/>
<feColorMatrix in="SourceAlpha" type="matrix" values="0 0 0 0 0 0 0 0 0 0 0 0 0 0 0 0 0 0 127 0" result="hardAlpha"/>
<feOffset dy="4"/>
<feGaussianBlur stdDeviation="2"/>
<feComposite in2="hardAlpha" operator="out"/>
<feColorMatrix type="matrix" values="0 0 0 0 0 0 0 0 0 0 0 0 0 0 0 0 0 0 0.25 0"/>
<feBlend mode="normal" in2="BackgroundImageFix" result="effect1_dropShadow_132_120"/>
<feBlend mode="normal" in="SourceGraphic" in2="effect1_dropShadow_132_120" result="shape"/>
</filter>
</defs>
</svg>
