<svg width="220" height="337" viewBox="0 0 220 337" fill="none" xmlns="http://www.w3.org/2000/svg">
<path d="M86.0001 299.266C86.0001 297.563 87.5236 296.243 89.2183 296.416C102.884 297.803 155.605 299.203 160 239C161.38 220.098 158.267 203.595 153.036 189.606C149.981 181.436 168.457 157.623 176.5 161C176.5 161 215.5 181 200.5 244.5C186.042 305.705 103.78 302.984 88.4571 301.933C87.0586 301.837 86.0001 300.668 86.0001 299.266Z" fill="white" fill-opacity="0.6"/>
<path d="M84.7998 111C93.0841 111 99.7998 117.716 99.7998 126V140.885C129.522 153.278 149 182.36 149 214.715V314C149 322.284 142.284 329 134 329H38C29.7158 329 23.0001 322.284 23 314V214.878C23 183.41 41.4244 155.024 69.7998 142.091V126C69.7998 117.716 76.5156 111 84.7998 111Z" fill="#D9D9D9"/>
<g filter="url(#filter0_d_132_118)">
<rect x="53" y="329" width="165" height="28" rx="14" transform="rotate(-90 53 329)" fill="white" fill-opacity="0.8" shape-rendering="crispEdges"/>
</g>
<g filter="url(#filter1_d_132_118)">
<rect x="90" y="329" width="165" height="28" rx="14" transform="rotate(-90 90 329)" fill="white" fill-opacity="0.8" shape-rendering="crispEdges"/>
</g>
<path d="M65.5852 34.7748C68.5747 36.7588 68.5633 41.1526 65.5635 43.1211L44.9032 56.6785C41.9035 58.647 37.8681 56.9087 37.2378 53.3765L34.1167 35.8853L31.7183 22.4444C30.9454 18.1133 35.7397 14.9673 39.4054 17.4001L50.7813 24.9499L65.5852 34.7748Z" fill="white" fill-opacity="0.6"/>
<path d="M107.313 34.7748C104.323 36.7588 104.335 41.1526 107.334 43.1211L127.995 56.6785C130.994 58.647 135.03 56.9087 135.66 53.3765L138.781 35.8853L141.18 22.4444C141.953 18.1133 137.158 14.9673 133.493 17.4001L122.117 24.9499L107.313 34.7748Z" fill="white" fill-opacity="0.6"/>
<g filter="url(#filter2_d_132_118)">
<rect x="4" y="305" width="82.529" height="24" rx="12" fill="white" fill-opacity="0.8"/>
<rect x="86.5293" y="305" width="81.471" height="24" rx="12" fill="white" fill-opacity="0.8"/>
</g>
<g filter="url(#filter3_d_132_118)">
<ellipse cx="85.5" cy="90" rx="60.5" ry="56" fill="#D9D9D9"/>
</g>
<rect x="63" y="95" width="46" height="24" rx="12" fill="white" fill-opacity="0.8"/>
<defs>
<filter id="filter0_d_132_118" x="49" y="164" width="36" height="173" filterUnits="userSpaceOnUse" color-interpolation-filters="sRGB">
<feFlood flood-opacity="0" result="BackgroundImageFix"/>
<feColorMatrix in="SourceAlpha" type="matrix" values="0 0 0 0 0 0 0 0 0 0 0 0 0 0 0 0 0 0 127 0" result="hardAlpha"/>
<feOffset dy="4"/>
<feGaussianBlur stdDeviation="2"/>
<feComposite in2="hardAlpha" operator="out"/>
<feColorMatrix type="matrix" values="0 0 0 0 0 0 0 0 0 0 0 0 0 0 0 0 0 0 0.25 0"/>
<feBlend mode="normal" in2="BackgroundImageFix" result="effect1_dropShadow_132_118"/>
<feBlend mode="normal" in="SourceGraphic" in2="effect1_dropShadow_132_118" result="shape"/>
</filter>
<filter id="filter1_d_132_118" x="86" y="164" width="36" height="173" filterUnits="userSpaceOnUse" color-interpolation-filters="sRGB">
<feFlood flood-opacity="0" result="BackgroundImageFix"/>
<feColorMatrix in="SourceAlpha" type="matrix" values="0 0 0 0 0 0 0 0 0 0 0 0 0 0 0 0 0 0 127 0" result="hardAlpha"/>
<feOffset dy="4"/>
<feGaussianBlur stdDeviation="2"/>
<feComposite in2="hardAlpha" operator="out"/>
<feColorMatrix type="matrix" values="0 0 0 0 0 0 0 0 0 0 0 0 0 0 0 0 0 0 0.25 0"/>
<feBlend mode="normal" in2="BackgroundImageFix" result="effect1_dropShadow_132_118"/>
<feBlend mode="normal" in="SourceGraphic" in2="effect1_dropShadow_132_118" result="shape"/>
</filter>
<filter id="filter2_d_132_118" x="0" y="305" width="172" height="32" filterUnits="userSpaceOnUse" color-interpolation-filters="sRGB">
<feFlood flood-opacity="0" result="BackgroundImageFix"/>
<feColorMatrix in="SourceAlpha" type="matrix" values="0 0 0 0 0 0 0 0 0 0 0 0 0 0 0 0 0 0 127 0" result="hardAlpha"/>
<feOffset dy="4"/>
<feGaussianBlur stdDeviation="2"/>
<feComposite in2="hardAlpha" operator="out"/>
<feColorMatrix type="matrix" values="0 0 0 0 0 0 0 0 0 0 0 0 0 0 0 0 0 0 0.25 0"/>
<feBlend mode="normal" in2="BackgroundImageFix" result="effect1_dropShadow_132_118"/>
<feBlend mode="normal" in="SourceGraphic" in2="effect1_dropShadow_132_118" result="shape"/>
</filter>
<filter id="filter3_d_132_118" x="21" y="34" width="129" height="120" filterUnits="userSpaceOnUse" color-interpolation-filters="sRGB">
<feFlood flood-opacity="0" result="BackgroundImageFix"/>
<feColorMatrix in="SourceAlpha" type="matrix" values="0 0 0 0 0 0 0 0 0 0 0 0 0 0 0 0 0 0 127 0" result="hardAlpha"/>
<feOffset dy="4"/>
<feGaussianBlur stdDeviation="2"/>
<feComposite in2="hardAlpha" operator="out"/>
<feColorMatrix type="matrix" values="0 0 0 0 0 0 0 0 0 0 0 0 0 0 0 0 0 0 0.25 0"/>
<feBlend mode="normal" in2="BackgroundImageFix" result="effect1_dropShadow_132_118"/>
<feBlend mode="normal" in="SourceGraphic" in2="effect1_dropShadow_132_118" result="shape"/>
</filter>
</defs>
</svg>
