<svg width="169" height="74" viewBox="0 0 169 74" fill="none" xmlns="http://www.w3.org/2000/svg">
<path d="M60.7338 34.9113C64.0275 36.8113 64.1848 41.0035 61.0299 42.803L36.1458 56.9966C32.9909 58.7961 28.629 57.0022 27.9346 53.6196L24.294 35.8853L21.2866 21.2359C20.464 17.2289 25.3001 14.4705 29.2017 16.7213L43.4659 24.9499L60.7338 34.9113Z" fill="#1E1E1E"/>
<path d="M108.266 34.9113C104.972 36.8113 104.815 41.0035 107.97 42.803L132.854 56.9966C136.009 58.7961 140.371 57.0022 141.065 53.6196L144.706 35.8853L147.713 21.2359C148.536 17.2289 143.7 14.4705 139.798 16.7213L125.534 24.9499L108.266 34.9113Z" fill="#1E1E1E"/>
<path d="M100.026 46.9113C96.7323 48.8113 96.575 53.0035 99.7299 54.803L124.614 68.9966C127.769 70.7961 132.131 69.0022 132.825 65.6196L136.466 47.8853L139.473 33.2359C140.296 29.2289 135.46 26.4705 131.558 28.7213L117.294 36.9499L100.026 46.9113Z" fill="#FFA6A6"/>
<path d="M71.7338 47.9113C75.0275 49.8113 75.1848 54.0035 72.0299 55.803L47.1458 69.9966C43.9909 71.7961 39.629 70.0022 38.9346 66.6196L35.294 48.8853L32.2866 34.2359C31.464 30.2289 36.3001 27.4705 40.2017 29.7213L54.4659 37.9499L71.7338 47.9113Z" fill="#FFA6A6"/>
</svg>
