<svg width="190" height="154" viewBox="0 0 190 154" fill="none" xmlns="http://www.w3.org/2000/svg">
<path d="M91.4883 0.362119C93.6352 -0.118585 95.8617 -0.120529 98.0098 0.355283L114.357 3.97638C150.986 12.0901 177.056 44.5667 177.056 82.0828V131.004C177.055 139.288 170.34 146.004 162.056 146.004H27.0557C18.7715 146.004 12.0559 139.288 12.0557 131.004V82.2166C12.0557 44.7695 38.0322 12.3332 74.5742 4.15021L91.4883 0.362119Z" fill="#1E1E1E"/>
<path d="M92.9141 52.1174C94.1503 51.962 95.4013 51.9617 96.6377 52.1155L121.589 55.219C160.158 60.0175 189.111 92.7968 189.111 131.663C189.111 139.64 182.645 146.107 174.668 146.107H14.4277C6.45961 146.107 1.82076e-06 139.647 0 131.679C0.000148573 92.8952 28.8641 60.1731 67.3447 55.3333L92.9141 52.1174Z" fill="#1E1E1E"/>
<path d="M95.124 55.0005C102.482 54.9969 111.121 56.2018 119.258 57.7749C136.578 61.1235 148 76.9667 148 94.6079C148 116.916 129.916 135 107.607 135H82.332C60.0573 135 42.0001 116.943 42 94.6685C42 77.0781 53.3723 61.2798 70.6318 57.8843C78.8924 56.2592 87.679 55.0042 95.124 55.0005Z" fill="white"/>
<g filter="url(#filter0_d_154_123)">
<rect x="13.0557" y="128" width="41" height="18" rx="9" fill="#E7E7E7"/>
</g>
<g filter="url(#filter1_d_154_123)">
<rect x="136.056" y="128" width="41" height="18" rx="9" fill="#E7E7E7"/>
</g>
<defs>
<filter id="filter0_d_154_123" x="9.05566" y="128" width="49" height="26" filterUnits="userSpaceOnUse" color-interpolation-filters="sRGB">
<feFlood flood-opacity="0" result="BackgroundImageFix"/>
<feColorMatrix in="SourceAlpha" type="matrix" values="0 0 0 0 0 0 0 0 0 0 0 0 0 0 0 0 0 0 127 0" result="hardAlpha"/>
<feOffset dy="4"/>
<feGaussianBlur stdDeviation="2"/>
<feComposite in2="hardAlpha" operator="out"/>
<feColorMatrix type="matrix" values="0 0 0 0 0 0 0 0 0 0 0 0 0 0 0 0 0 0 0.25 0"/>
<feBlend mode="normal" in2="BackgroundImageFix" result="effect1_dropShadow_154_123"/>
<feBlend mode="normal" in="SourceGraphic" in2="effect1_dropShadow_154_123" result="shape"/>
</filter>
<filter id="filter1_d_154_123" x="132.056" y="128" width="49" height="26" filterUnits="userSpaceOnUse" color-interpolation-filters="sRGB">
<feFlood flood-opacity="0" result="BackgroundImageFix"/>
<feColorMatrix in="SourceAlpha" type="matrix" values="0 0 0 0 0 0 0 0 0 0 0 0 0 0 0 0 0 0 127 0" result="hardAlpha"/>
<feOffset dy="4"/>
<feGaussianBlur stdDeviation="2"/>
<feComposite in2="hardAlpha" operator="out"/>
<feColorMatrix type="matrix" values="0 0 0 0 0 0 0 0 0 0 0 0 0 0 0 0 0 0 0.25 0"/>
<feBlend mode="normal" in2="BackgroundImageFix" result="effect1_dropShadow_154_123"/>
<feBlend mode="normal" in="SourceGraphic" in2="effect1_dropShadow_154_123" result="shape"/>
</filter>
</defs>
</svg>
